<svg width="40" height="40" viewBox="0 0 40 40" fill="none" xmlns="http://www.w3.org/2000/svg">
<path d="M10 12V27.8083C10 30.0767 10 31.2117 10.34 31.905C10.6476 32.5323 11.1445 33.0472 11.7606 33.3767C12.3767 33.7063 13.0808 33.834 13.7733 33.7417C14.54 33.6417 15.4833 33.0117 17.37 31.7533L17.375 31.75C18.1233 31.25 18.4967 31.0017 18.8883 30.8633C19.6071 30.6093 20.3912 30.6093 21.11 30.8633C21.5017 31.0017 21.8767 31.2517 22.6283 31.7533C24.5167 33.0117 25.4617 33.64 26.2283 33.7417C26.9206 33.8336 27.6243 33.7058 28.2401 33.3762C28.8558 33.0467 29.3525 32.532 29.66 31.905C30 31.2117 30 30.0767 30 27.8083V11.995C30 10.1317 30 9.19833 29.6367 8.48666C29.3166 7.8593 28.8061 7.34938 28.1783 7.03C27.4667 6.66666 26.5333 6.66666 24.6667 6.66666H15.3333C13.4667 6.66666 12.5333 6.66666 11.82 7.03C11.1928 7.34948 10.6828 7.85942 10.3633 8.48666C10 9.2 10 10.1333 10 12Z" stroke="black" stroke-width="3" stroke-linecap="round" stroke-linejoin="round"/>
</svg>
