<svg width="40" height="40" viewBox="0 0 40 40" fill="none" xmlns="http://www.w3.org/2000/svg">
<path d="M13.3334 6.66667H12C10.1334 6.66667 9.20002 6.66667 8.48669 7.03C7.85944 7.34948 7.3495 7.85942 7.03002 8.48667C6.66669 9.20001 6.66669 10.1333 6.66669 12V28C6.66669 29.8667 6.66669 30.8 7.03002 31.5133C7.34959 32.1405 7.85951 32.6504 8.48669 32.97C9.19835 33.3333 10.1317 33.3333 11.995 33.3333H13.3334M13.3334 6.66667H28C29.8667 6.66667 30.8 6.66667 31.5117 7.03C32.14 7.35 32.65 7.85834 32.97 8.48667C33.3334 9.19834 33.3334 10.1317 33.3334 11.995V28.0067C33.3334 29.87 33.3334 30.8017 32.97 31.5133C32.6498 32.1406 32.1393 32.6505 31.5117 32.97C30.8 33.3333 29.8684 33.3333 28.005 33.3333H13.3334M13.3334 6.66667V33.3333M20 18.3333H26.6667M20 13.3333H26.6667" stroke="black" stroke-width="3" stroke-linecap="round" stroke-linejoin="round"/>
</svg>
