<svg width="40" height="40" viewBox="0 0 40 40" fill="none" xmlns="http://www.w3.org/2000/svg"><path d="M13.3334 20H20M20 20H26.6667M20 20V26.6667M20 20V13.3333M6.66669 28V12C6.66669 10.1333 6.66669 9.20001 7.03002 8.48667C7.35002 7.85834 7.85835 7.35 8.48669 7.03C9.20002 6.66667 10.1334 6.66667 12 6.66667H28C29.8667 6.66667 30.8 6.66667 31.5134 7.03C32.1405 7.34958 32.6504 7.85949 32.97 8.48667C33.3334 9.20001 33.3334 10.1333 33.3334 12V28C33.3334 29.8667 33.3334 30.8 32.97 31.5133C32.6504 32.1405 32.1405 32.6503 31.5134 32.97C30.8 33.3333 29.87 33.3333 28.0067 33.3333H11.995C10.1317 33.3333 9.19835 33.3333 8.48669 32.97C7.85951 32.6504 7.34959 32.1405 7.03002 31.5133C6.66669 30.8 6.66669 29.8667 6.66669 28Z" stroke="black" stroke-width="3" stroke-linecap="round" stroke-linejoin="round"/></svg>