<svg width="43" height="43" viewBox="0 0 43 43" fill="none" xmlns="http://www.w3.org/2000/svg">
<path d="M10.75 37.625C9.76461 37.625 8.92073 37.2738 8.2184 36.5715C7.51606 35.8692 7.1655 35.0259 7.16669 34.0417V17.9167C7.16669 17.3493 7.2939 16.8118 7.54831 16.3042C7.80273 15.7965 8.1533 15.3785 8.60002 15.05L19.35 6.98751C19.9771 6.50973 20.6938 6.27084 21.5 6.27084C22.3063 6.27084 23.0229 6.50973 23.65 6.98751L34.4 15.05C34.8479 15.3785 35.1991 15.7965 35.4535 16.3042C35.7079 16.8118 35.8346 17.3493 35.8334 17.9167V34.0417C35.8334 35.0271 35.4822 35.871 34.7799 36.5733C34.0775 37.2756 33.2342 37.6262 32.25 37.625H10.75ZM17.9167 25.0833V31.3542C17.9167 31.5931 18.0063 31.8021 18.1854 31.9813C18.3646 32.1604 18.5736 32.25 18.8125 32.25C19.0514 32.25 19.2604 32.1604 19.4396 31.9813C19.6188 31.8021 19.7084 31.5931 19.7084 31.3542V25.0833C20.4549 25.0833 21.0897 24.8218 21.6129 24.2986C22.1361 23.7754 22.3971 23.1412 22.3959 22.3958V17.9167C22.3959 17.6778 22.3063 17.4688 22.1271 17.2896C21.9479 17.1104 21.7389 17.0208 21.5 17.0208C21.2611 17.0208 21.0521 17.1104 20.8729 17.2896C20.6938 17.4688 20.6042 17.6778 20.6042 17.9167V22.3958H19.7084V17.9167C19.7084 17.6778 19.6188 17.4688 19.4396 17.2896C19.2604 17.1104 19.0514 17.0208 18.8125 17.0208C18.5736 17.0208 18.3646 17.1104 18.1854 17.2896C18.0063 17.4688 17.9167 17.6778 17.9167 17.9167V22.3958H17.0209V17.9167C17.0209 17.6778 16.9313 17.4688 16.7521 17.2896C16.5729 17.1104 16.3639 17.0208 16.125 17.0208C15.8861 17.0208 15.6771 17.1104 15.4979 17.2896C15.3188 17.4688 15.2292 17.6778 15.2292 17.9167V22.3958C15.2292 23.1424 15.4908 23.7772 16.0139 24.3004C16.5371 24.8236 17.1714 25.0845 17.9167 25.0833ZM25.9792 32.25C26.2181 32.25 26.4271 32.1604 26.6063 31.9813C26.7854 31.8021 26.875 31.5931 26.875 31.3542V18.0958C26.875 17.857 26.7854 17.6479 26.6063 17.4688C26.4271 17.2896 26.2181 17.2 25.9792 17.2C25.1431 17.2 24.4861 17.5434 24.0084 18.2302C23.5306 18.917 23.2917 19.7083 23.2917 20.6042V25.0833C23.2917 25.3222 23.3813 25.5313 23.5604 25.7104C23.7396 25.8896 23.9486 25.9792 24.1875 25.9792H25.0834V31.3542C25.0834 31.5931 25.1729 31.8021 25.3521 31.9813C25.5313 32.1604 25.7403 32.25 25.9792 32.25Z" fill="#1D976C"/>
</svg>
